<svg xmlns="http://www.w3.org/2000/svg" viewBox="0 0 249.8 249.8" enable-background="new 0 0 249.8 249.8"><g fill="#4F260F" stroke="#4F260F" stroke-miterlimit="10"><path d="M196.1 107.1c2.5 9.9 3.9 20.4 3.9 31.3 0 1.3 0 2.5-.1 3.8l12.4 5 10.3-8.8 7.9 9.6-15.4 13.2-16.1-6.7c-1.8 14.7-6.1 28.3-12.4 40.1l2.2-3.1 12.1 7.1 11.5-7.1 6.4 10.7-17.2 10.7-18.9-11.4c-14.8 23.7-37.7 38.9-63.4 38.9-25.7 0-48.5-15.2-63.3-38.8l-18.6 11.2-17.2-10.7 6.4-10.7 11.5 7.1 12.1-7.1.9 1.2c-5.7-11.4-9.6-24.2-11.4-38l-15.7 6.6-15.5-13.2 7.9-9.6 10.3 8.8 11.9-4.8-.1-4c0-10.9 1.4-21.5 3.9-31.3l-20.1-.8-8.8-18.5 11-5.4 5.9 12.3 13.9.7.2 4.1c8.3-25.5 24.6-45.8 45-56 .4-7.8 6.7-14.1 14.4-14.1h33.8c8 0 14.5 6.6 14.5 14.8 0 .4-.1.7-.1 1 19.2 10.9 34.4 30.9 42.1 55.6l.3-5.6 13.9-.7 5.9-12.3 11 5.4-8.8 18.5-20.4 1zM160.1 16.4l-1.6 4.4-2.4 1.1-5.2 1.4-4.3 2.7-6.1 3.5v-3.5l6.9-5 4.9-1.5 4.4-3.1 2.6-5.2 4.9-1.7-1.4 4.8zM91 23.3l-5.2-1.4-2.4-1.1-1.6-4.4-2.7-2.1-1.4-4.8 4.9 1.7 2.5 5.2 4.4 3.1 5 1.5 6.9 5v3.5l-6.1-3.5z"/></g></svg>