<?xml version="1.0" encoding="utf-8"?>
<!-- Generator: Adobe Illustrator 18.1.1, SVG Export Plug-In . SVG Version: 6.00 Build 0)  -->
<svg version="1.1" id="Layer_1" xmlns="http://www.w3.org/2000/svg" xmlns:xlink="http://www.w3.org/1999/xlink" x="0px" y="0px"
	 viewBox="0 0 249.8 249.8" enable-background="new 0 0 249.8 249.8" xml:space="preserve">
<g>
	<g>
		<path fill="#4F260F" stroke="#4F260F" stroke-miterlimit="10" d="M196.1,107.1c2.5,9.9,3.9,20.4,3.9,31.3c0,1.3,0,2.5-0.1,3.8
			l12.4,5l10.3-8.8l7.9,9.6l-15.4,13.2l-16.1-6.7c-1.8,14.7-6.1,28.3-12.4,40.1l2.2-3.1l12.1,7.1l11.5-7.1l6.4,10.7l-17.2,10.7
			l-18.9-11.4c-14.8,23.7-37.7,38.9-63.4,38.9c-25.7,0-48.5-15.2-63.3-38.8l-18.6,11.2l-17.2-10.7l6.4-10.7l11.5,7.1l12.1-7.1
			l0.9,1.2c-5.7-11.4-9.6-24.2-11.4-38L24,161.2L8.5,148l7.9-9.6l10.3,8.8l11.9-4.8c0-1.3-0.1-2.7-0.1-4c0-10.9,1.4-21.5,3.9-31.3
			l-20.1-0.8l-8.8-18.5l11-5.4l5.9,12.3l13.9,0.7l0.2,4.1c8.3-25.5,24.6-45.8,45-56c0.4-7.8,6.7-14.1,14.4-14.1h33.8
			c8,0,14.5,6.6,14.5,14.8c0,0.4-0.1,0.7-0.1,1c19.2,10.9,34.4,30.9,42.1,55.6l0.3-5.6l13.9-0.7l5.9-12.3l11,5.4l-8.8,18.5
			L196.1,107.1z"/>
		<polygon fill="#4F260F" stroke="#4F260F" stroke-miterlimit="10" points="160.1,16.4 158.5,20.8 156.1,21.9 150.9,23.3 146.6,26 
			140.5,29.5 140.5,26 147.4,21 152.3,19.5 156.7,16.4 159.3,11.2 164.2,9.5 162.8,14.3 		"/>
		<polygon fill="#4F260F" stroke="#4F260F" stroke-miterlimit="10" points="91,23.3 85.8,21.9 83.4,20.8 81.8,16.4 79.1,14.3 
			77.7,9.5 82.6,11.2 85.1,16.4 89.5,19.5 94.5,21 101.4,26 101.4,29.5 95.3,26 		"/>
	</g>
</g>
</svg>
